<svg id="Component_52_1" data-name="Component 52 – 1" xmlns="http://www.w3.org/2000/svg" width="275.7" height="87.202" viewBox="0 0 275.7 87.202">
  <g id="Group_1664" data-name="Group 1664" transform="translate(122.585 21.065)">
    <path id="Path_906" data-name="Path 906" d="M1183.74,151.374l-18.667-26.458h.576q8.019,0,16.038-.008a.814.814,0,0,1,.763.4q5.048,7.308,10.118,14.6c.085.122.172.242.294.414.111-.156.2-.283.293-.412q5.014-7.331,10.021-14.667a.654.654,0,0,1,.614-.333q7.772.013,15.545.007c.129,0,.258.017.452.031-.707.981-1.375,1.911-2.046,2.839q-8.124,11.246-16.26,22.484a.7.7,0,0,0,.009.991q9.629,13.361,19.23,26.742c.084.118.161.24.293.436h-.539q-8.221,0-16.441.008a.791.791,0,0,1-.755-.4q-5.245-7.877-10.511-15.74c-.082-.123-.171-.241-.291-.409-.479.721-.939,1.41-1.395,2.1q-4.643,7.04-9.28,14.085a.635.635,0,0,1-.591.368q-8.288-.017-16.575-.009c-.1,0-.2-.01-.385-.02Z" transform="translate(-1067.897 -124.908)" fill="#4d4d4d"/>
    <path id="Path_907" data-name="Path 907" d="M921.4,148.444h23.586v11.7h-23.6v18.317H906.246V125h41.965V136.67H921.4Z" transform="translate(-906.246 -124.963)" fill="#4d4d4d"/>
    <path id="Path_908" data-name="Path 908" d="M1081.389,125.026V137h-16.329v41.485h-15.184V137.034h-16.411V125.026Z" transform="translate(-985.954 -124.982)" fill="#4d4d4d"/>
  </g>
  <rect id="Rectangle_463" data-name="Rectangle 463" width="70.583" height="23.154" transform="translate(28.568)" fill="#4d4d4d"/>
  <rect id="Rectangle_464" data-name="Rectangle 464" width="50.79" height="23.154" transform="translate(28.755 31.93)" fill="#4d4d4d"/>
  <rect id="Rectangle_465" data-name="Rectangle 465" width="23.154" height="23.154" transform="translate(0 31.93)" fill="#4d4d4d"/>
  <rect id="Rectangle_466" data-name="Rectangle 466" width="23.154" height="23.154" transform="translate(28.755 64.048)" fill="#4d4d4d"/>
</svg>
