<svg xmlns="http://www.w3.org/2000/svg" width="331.386" height="77.668" viewBox="0 0 331.386 77.668">
  <g id="Component_26_27" data-name="Component 26 27" transform="translate(-49 -48.332)">
    <g id="Component_25_1" data-name="Component 25 1">
      <path id="Path_23122-2" data-name="Path 23122-2" d="M58.384,102.544l16.752,9.678v8.025L52.325,107.072V69.266l4.52-2.609L55.184,63.78,49,67.352v41.635L78.452,126V110.3L60.046,99.667Z" fill="#1a1a1a"/>
      <path id="Path_23123-2" data-name="Path 23123-2" d="M81.933,52.167,101.017,63.2l1.661-2.876L81.933,48.332,61.178,60.318l1.661,2.876Z" fill="#1a1a1a"/>
      <path id="Path_23124-2" data-name="Path 23124-2" d="M81.933,64.072,101.017,75.1l1.661-2.876L81.933,60.237,61.178,72.223,62.839,75.1Z" fill="#1a1a1a"/>
      <path id="Path_23125-2" data-name="Path 23125-2" d="M108.659,63.784,107,66.66l4.521,2.609v37.806L88.705,120.247V112.22l16.931-9.78-1.661-2.877L85.385,110.3V126l29.452-17.013V67.352Z" fill="#1a1a1a"/>
      <path id="Path_23126-2" data-name="Path 23126-2" d="M91.227,93.7a6.564,6.564,0,0,0-.854-5.244c-.036-.055-.07-.111-.105-.165l-.523-.645a1.768,1.768,0,0,1-.2-.255.136.136,0,0,1-.009-.121c.082-.156.172-.306.264-.455a5.571,5.571,0,0,0,.747-1.89A6.917,6.917,0,0,0,90.6,82.5a6.049,6.049,0,0,0-5.013-5.085c-.552-.1-.539-.071-.541-.669V75.5a1.041,1.041,0,0,0-.033-.26.145.145,0,0,0-.088-.088.986.986,0,0,0-.259-.041H81.382a.818.818,0,0,0-.26.033.23.23,0,0,0-.128.128,1.4,1.4,0,0,0-.028.329c0,.417,0,.834-.005,1.25a1.3,1.3,0,0,1-.034.329c-.014.052-.082.1-.13.133a.234.234,0,0,1-.127.028c-.305,0-.614.007-.921,0-.177,0-.27-.1-.271-.3-.007-.4,0-.79-.009-1.186,0-.174-.011-.349-.019-.526a.231.231,0,0,0-.22-.2c-.088-.006-.174-.014-.263-.014H75.806c-.087,0-.174.009-.263.016a.223.223,0,0,0-.2.224c-.006.372-.009.746-.012,1.119q0,.328-.014.657a.232.232,0,0,1-.221.2c-.174.009-.351.016-.526.016H72.991a1.836,1.836,0,0,0-.391.036.238.238,0,0,0-.139.121.427.427,0,0,0-.024.194v3.424a.624.624,0,0,0,.028.2.162.162,0,0,0,.088.092,1.114,1.114,0,0,0,.257.036c.373,0,.747,0,1.12,0a1.3,1.3,0,0,1,.329.033.2.2,0,0,1,.117.136,4.591,4.591,0,0,1,.032.524v9.022l-.014.847c.006.11.017.22.017.329v1.515c0,.088,0,.177-.007.263a.238.238,0,0,1-.219.255h-.017c-.308.006-.616.006-.922.01-.2,0-.4.005-.593.014a.217.217,0,0,0-.2.215c0,.109-.011.219-.011.329V97.9c0,.132.009.263.018.395a.228.228,0,0,0,.18.164c.129.011.261.022.392.024h1.515c.177,0,.351,0,.526.012a.239.239,0,0,1,.257.217v.022c.006.264.005.527.01.79,0,.2.011.394.019.591a.2.2,0,0,0,.174.164c.11.011.22.02.329.02h3.1c.11,0,.218-.01.329-.02a.219.219,0,0,0,.165-.178c.01-.11.018-.218.02-.329v-.855a.949.949,0,0,1,.031-.26.274.274,0,0,1,.119-.119.457.457,0,0,1,.193-.036c.219,0,.439,0,.657,0,.459,0,.486.082.488.493v.922c0,.359.045.394.432.4h3.1c.082,0,.174,0,.263-.006.2-.009.289-.083.294-.268,0-.263,0-.528.007-.79,0-.177.005-.351.012-.528a.246.246,0,0,1,.212-.216c.153-.017.305-.034.458-.047A6.2,6.2,0,0,0,91.227,93.7ZM78.529,82a2.461,2.461,0,0,1,.032-.393.151.151,0,0,1,.128-.133,2.791,2.791,0,0,1,.329-.028h5.526a1.94,1.94,0,0,1,1.479.6,1.753,1.753,0,0,1,.519,1.178q.009.329,0,.657a1.871,1.871,0,0,1-1.568,1.7c-.218.028-.438.028-.658.039h-5.27a2.2,2.2,0,0,1-.388-.041.137.137,0,0,1-.088-.089,1.581,1.581,0,0,1-.038-.329c0-.57,0-1.139,0-1.71C78.528,82.97,78.526,82.487,78.529,82Zm6.719,12.376c-.4.007-.79.005-1.186.005H79.055a2.524,2.524,0,0,1-.389-.037.133.133,0,0,1-.082-.083,1.849,1.849,0,0,1-.052-.385c0-.636,0-1.272,0-1.911V90.192c0-.082.01-.174.019-.261a.236.236,0,0,1,.171-.174c.131-.007.263-.014.394-.014h5.86a2.355,2.355,0,0,1,.9.131,2.114,2.114,0,0,1,1.411,1.891,2.792,2.792,0,0,1-.091,1.106,2.136,2.136,0,0,1-1.955,1.51Z" fill="#1a1a1a"/>
    </g>
    <g id="Group_4205-2" data-name="Group 4205-2">
      <path id="Path_23127-2" data-name="Path 23127-2" d="M147.626,77.851V97.576h-3.747L134.048,85.6V97.573H129.54V77.848h3.781l9.8,11.977V77.851Z" fill="#1a1a1a"/>
      <path id="Path_23128-2" data-name="Path 23128-2" d="M167.568,93.909v3.664H152.3V77.848h14.9V81.51h-10.37v4.283h9.157v3.551h-9.157v4.563Z" fill="#1a1a1a"/>
      <path id="Path_23129-2" data-name="Path 23129-2" d="M200.719,77.851l-6.451,19.725h-4.9L185.03,84.219l-4.48,13.354h-4.876l-6.481-19.725h4.733l4.455,13.863,4.648-13.86h4.226l4.508,13.972,4.593-13.972Z" fill="#1a1a1a"/>
      <path id="Path_23130-2" data-name="Path 23130-2" d="M201.727,95.627l1.549-3.437a11.587,11.587,0,0,0,6.509,2.055c2.7,0,3.8-.9,3.8-2.113,0-3.69-11.465-1.151-11.465-8.479,0-3.353,2.7-6.142,8.31-6.142a13.227,13.227,0,0,1,6.845,1.746l-1.409,3.465a11.13,11.13,0,0,0-5.464-1.549c-2.706,0-3.747,1.013-3.747,2.253,0,3.634,11.465,1.127,11.465,8.366,0,3.3-2.733,6.114-8.366,6.114A14.013,14.013,0,0,1,201.727,95.627Z" fill="#1a1a1a"/>
      <path id="Path_23131-2" data-name="Path 23131-2" d="M220,87.712c0-5.945,4.565-10.2,10.7-10.2a10.178,10.178,0,0,1,8.114,3.493l-2.929,2.7a6.343,6.343,0,0,0-4.959-2.31,6.048,6.048,0,0,0-6.311,5.776h0q-.012.266,0,.534a6.047,6.047,0,0,0,5.775,6.309h0a5.327,5.327,0,0,0,.536,0,6.283,6.283,0,0,0,4.959-2.337l2.929,2.7a10.133,10.133,0,0,1-8.136,3.524C224.572,97.912,220,93.657,220,87.712Z" fill="#1a1a1a"/>
      <path id="Path_23132-2" data-name="Path 23132-2" d="M254.456,97.573l-3.8-5.495h-4.2v5.495H241.9V77.848h8.536c5.269,0,8.564,2.733,8.564,7.157a6.409,6.409,0,0,1-4.055,6.226l4.423,6.339Zm-4.281-16h-3.719v6.875h3.719c2.789,0,4.2-1.3,4.2-3.437C254.372,82.837,252.965,81.569,250.175,81.569Z" fill="#1a1a1a"/>
      <path id="Path_23133-2" data-name="Path 23133-2" d="M272.058,90.585v6.986H267.5V90.528L259.863,77.85h4.849l5.269,8.761,5.266-8.761h4.48Z" fill="#1a1a1a"/>
      <path id="Path_23134-2" data-name="Path 23134-2" d="M298.733,85.008c0,4.395-3.3,7.127-8.564,7.127H286.2v5.438h-4.563V77.848h8.536C295.438,77.851,298.733,80.583,298.733,85.008Zm-4.619,0c0-2.17-1.41-3.437-4.2-3.437H286.2v6.844h3.719c2.788,0,4.2-1.267,4.2-3.407Z" fill="#1a1a1a"/>
      <path id="Path_23135-2" data-name="Path 23135-2" d="M306.331,81.569h-6.31V77.851h17.186v3.718H310.9v16h-4.565Z" fill="#1a1a1a"/>
      <path id="Path_23136-2" data-name="Path 23136-2" d="M318.413,87.712c0-5.86,4.564-10.2,10.789-10.2,6.2,0,10.79,4.311,10.79,10.2s-4.591,10.2-10.79,10.2C322.981,97.912,318.413,93.572,318.413,87.712Zm16.96,0a6.172,6.172,0,1,0-12.341-.247v.247a6.172,6.172,0,0,0,12.341.246c0-.082.006-.164,0-.246Z" fill="#1a1a1a"/>
      <path id="Path_23137-2" data-name="Path 23137-2" d="M342.048,95.036a2.734,2.734,0,1,1,0,.008Z" fill="#1a1a1a"/>
      <path id="Path_23138-2" data-name="Path 23138-2" d="M350.8,77.851h4.565V97.576H350.8Z" fill="#1a1a1a"/>
      <path id="Path_23139-2" data-name="Path 23139-2" d="M358.8,87.712c0-5.86,4.566-10.2,10.791-10.2,6.2,0,10.79,4.311,10.79,10.2s-4.591,10.2-10.79,10.2C363.369,97.912,358.8,93.572,358.8,87.712Zm16.96,0a6.171,6.171,0,0,0-12.339-.254v.254a6.171,6.171,0,0,0,12.339.253v-.007Q375.768,87.835,375.765,87.712Z" fill="#1a1a1a"/>
    </g>
  </g>
</svg>
